<svg id="Layer_1" data-name="Layer 1" width="57" height="66" xmlns="http://www.w3.org/2000/svg" viewBox="0 0 57 66"><defs><style>.cls-1{fill:#f2cab0;}.cls-2{fill:#fff;}.cls-3{fill:#008147;}.cls-4{fill:#d88931;}.cls-5{fill:#fbcf9c;}.cls-6{fill:#ecb983;}.cls-7{fill:#f7c69e;}.cls-8{fill:#512a14;}.cls-9{fill:#dcaa90;}.cls-10{fill:#ba7643;}.cls-11{fill:#e08a4b;}</style></defs><title>Druper_up_logo_new_variation</title><g id="_Gruppe_" data-name="&lt;Gruppe&gt;"><g id="_Gruppe_2" data-name="&lt;Gruppe&gt;"><g id="_Gruppe_3" data-name="&lt;Gruppe&gt;"><path id="_Pfad_" data-name="&lt;Pfad&gt;" class="cls-1" d="M45.16,23.24a7,7,0,0,0-.26-1.44,18.64,18.64,0,0,1,.31,2.9C45.2,24.05,45.18,23.56,45.16,23.24Z"/><path id="_Pfad_2" data-name="&lt;Pfad&gt;" class="cls-1" d="M35.24,40c1.25-.36,2.45.37,3.54,1.06l.92.58.08.05.19,0a5.33,5.33,0,0,0,.86-.56,8.88,8.88,0,0,0,3-3.54,5.81,5.81,0,0,1-8-.56c0,.22.06.44.07.66A3.71,3.71,0,0,1,35.24,40Z"/><path id="_Pfad_3" data-name="&lt;Pfad&gt;" class="cls-1" d="M44.31,25.88a17.92,17.92,0,0,0-2.32-5c-.91-1.41-2-2.28-3.75-1.76a23.46,23.46,0,0,1-6.89-.2,44.24,44.24,0,0,1-6.09-1.67,2.51,2.51,0,0,0-2.6.43,14.64,14.64,0,0,0-5.95,9.39,3.65,3.65,0,0,1-.14.35c0,.14-.08.32-.12.48a19.75,19.75,0,0,0-.3,2.42,26.78,26.78,0,0,1,3.62,1.13,6.1,6.1,0,0,1,2.47-3.56,1.05,1.05,0,0,1-.93-1.1c0-.81.5-1.2,1.28-1.21,1.49,0,3,0,4.45,0,.78,0,1.3.37,1.29,1.19a1.15,1.15,0,0,1-.21.71,6.08,6.08,0,0,1,3.32,4.81h2.8a6.11,6.11,0,0,1,3.36-5,2.76,2.76,0,0,1-.28-1,1,1,0,0,1,1.16-.76h4.43c.53,0,1.1.07,1.2.68s.13,1.24-.61,1.52a6,6,0,0,1,1.68,1.78c0-1.36,0-2.56,0-3.55,0,.38,0,.76,0,1.15C44.41,27,44.45,26.36,44.31,25.88Z"/><path id="_Pfad_4" data-name="&lt;Pfad&gt;" class="cls-1" d="M34.24,33.25h-.08l.09.12S34.24,33.29,34.24,33.25Z"/><path id="_Pfad_5" data-name="&lt;Pfad&gt;" class="cls-1" d="M22.89,42.12l1.71.59c.61-.38,1.75-1.1,2.42-1.54,1.17-.76,2.44-1.6,3.79-1.16a2.93,2.93,0,0,0,.37.1A2.93,2.93,0,0,1,30.3,38a8,8,0,0,1,.3-1.83,5.93,5.93,0,0,1-5.07,2.9,6,6,0,0,1-6-6.1c0-.14,0-.27,0-.41a24.17,24.17,0,0,0-3.45-1.13,30.48,30.48,0,0,0,.21,3.16C16.67,36.89,19.55,41.05,22.89,42.12Z"/><path id="_Zusammengesetzter_Pfad_" data-name="&lt;Zusammengesetzter Pfad&gt;" class="cls-1" d="M25.53,28a5,5,0,1,0,4.88,5A5,5,0,0,0,25.53,28Zm.46,6.7a2.94,2.94,0,1,1,2.94-2.94A2.94,2.94,0,0,1,26,34.65Z"/><path id="_Zusammengesetzter_Pfad_2" data-name="&lt;Zusammengesetzter Pfad&gt;" class="cls-1" d="M41.52,28h0a15.09,15.09,0,0,1-2.42-.07h0a5,5,0,1,0,6,4.89A6.3,6.3,0,0,0,45,32a5.16,5.16,0,0,0-.29-1.09A4.93,4.93,0,0,0,41.52,28Zm-1.13,6.21a2.94,2.94,0,1,1,2.93-2.93A2.94,2.94,0,0,1,40.39,34.16Z"/><path id="_Pfad_6" data-name="&lt;Pfad&gt;" class="cls-1" d="M32.17,33.25h-.69a7.24,7.24,0,0,1-.19,1.25,8.22,8.22,0,0,1,.63-1A2.48,2.48,0,0,1,32.17,33.25Z"/><path id="_Zusammengesetzter_Pfad_3" data-name="&lt;Zusammengesetzter Pfad&gt;" class="cls-2" d="M40.39,28.29a2.94,2.94,0,1,0,2.93,2.94A2.94,2.94,0,0,0,40.39,28.29ZM41.06,32a1,1,0,1,1,1.09-1A1,1,0,0,1,41.06,32Z"/><path id="_Zusammengesetzter_Pfad_4" data-name="&lt;Zusammengesetzter Pfad&gt;" class="cls-2" d="M26,28.77a2.94,2.94,0,1,0,2.94,2.94A2.94,2.94,0,0,0,26,28.77Zm1.23,3.81a1,1,0,1,1,1.16-1A1.1,1.1,0,0,1,27.22,32.58Z"/><path id="_Zusammengesetzter_Pfad_5" data-name="&lt;Zusammengesetzter Pfad&gt;" class="cls-3" d="M41.06,30.1a1,1,0,1,0,1.09,1A1,1,0,0,0,41.06,30.1Zm-.13.91a.25.25,0,0,1-.27-.24.26.26,0,0,1,.27-.24.25.25,0,0,1,.26.24A.25.25,0,0,1,40.93,31Z"/><path id="_Pfad_7" data-name="&lt;Pfad&gt;" class="cls-2" d="M40.93,30.53a.26.26,0,0,0-.27.24.25.25,0,0,0,.27.24.25.25,0,0,0,.26-.24A.25.25,0,0,0,40.93,30.53Z"/><path id="_Zusammengesetzter_Pfad_6" data-name="&lt;Zusammengesetzter Pfad&gt;" class="cls-3" d="M27.22,30.51a1,1,0,1,0,1.16,1A1.1,1.1,0,0,0,27.22,30.51ZM27,31.4a.26.26,0,0,1-.24-.28.26.26,0,0,1,.32-.19.26.26,0,0,1,.25.28A.27.27,0,0,1,27,31.4Z"/><path id="_Pfad_8" data-name="&lt;Pfad&gt;" class="cls-2" d="M27.09,30.93a.26.26,0,0,0-.32.19.26.26,0,0,0,.24.28.27.27,0,0,0,.33-.19A.26.26,0,0,0,27.09,30.93Z"/><path id="_Pfad_9" data-name="&lt;Pfad&gt;" class="cls-4" d="M45.4,2.39c-.47,3.38-2.11,4.85-5.5,4.86A28.58,28.58,0,0,1,37,7.08a49.26,49.26,0,0,0-8.67-.34c-9.45.8-14.07,5.62-16.69,14.53-.79,2.68-.55,5.87-.47,8.79a9.23,9.23,0,0,1,2.31-.15,15.87,15.87,0,0,1,2.69.41,19.75,19.75,0,0,1,.3-2.42c0-.16.08-.34.12-.48a3.65,3.65,0,0,0,.14-.35,14.64,14.64,0,0,1,5.95-9.39,2.51,2.51,0,0,1,2.6-.43,44.24,44.24,0,0,0,6.09,1.67,23.46,23.46,0,0,0,6.89.2c1.76-.52,2.84.35,3.75,1.76a17.92,17.92,0,0,1,2.32,5c.14.48.1,1.16.86,1.22,0-.39,0-.77,0-1.15s0-.84,0-1.25a18.64,18.64,0,0,0-.31-2.9h0a15.59,15.59,0,0,0-1.58-4.55c-.33-.62-.09-.88.32-1.27A14.07,14.07,0,0,0,47.4,9.8c1-3.21.07-6.05-1.86-9C45.47,1.55,45.45,2,45.4,2.39Z"/><path id="_Pfad_10" data-name="&lt;Pfad&gt;" class="cls-4" d="M45.22,25a2.62,2.62,0,0,1,0-.28c0,.17,0,.36,0,.55Z"/><path id="_Pfad_11" data-name="&lt;Pfad&gt;" class="cls-4" d="M45.22,25.25v0Z"/><path id="_Pfad_12" data-name="&lt;Pfad&gt;" class="cls-4" d="M45.22,25.25c0-.19,0-.38,0-.55,0,.41,0,.83,0,1.25Z"/><path id="_Pfad_13" data-name="&lt;Pfad&gt;" class="cls-4" d="M43.87,37.54a8.88,8.88,0,0,1-3,3.54,5.33,5.33,0,0,1-.86.56l-.19,0,.68.42a21.3,21.3,0,0,0,3.24,2.09c.64.4.79.66.06,1.12A10.7,10.7,0,0,1,36.63,47c-1.34,1.89-4.49,5-8.34.06a8.62,8.62,0,0,1-6.21-1.84c-.41-.35-.43-.59,0-.89L24.18,43l.23-.14.19-.12-1.71-.59c-3.34-1.07-6.22-5.23-6.54-7.54a30.48,30.48,0,0,1-.21-3.16A14.8,14.8,0,0,0,13.41,31a.62.62,0,0,1,0,.13c.2,0,.34.15.36.51v1.25c0,2.14,0,4.28,0,6.42l0,1.64a5.69,5.69,0,0,1-.86-.21A5.89,5.89,0,0,1,11.32,40v.43a55.09,55.09,0,0,0,1,11.38c.36,1.35,1.69,5.22,4.35,7.46,4,3.41,10.82,7.11,16.44,5.54C39.83,63,44,58.45,45,51.45c.69-5.08.2-10.25.2-15.38l-.2.31A6.36,6.36,0,0,1,43.87,37.54Z"/><path id="_Pfad_14" data-name="&lt;Pfad&gt;" class="cls-4" d="M35.9,46.78a6.1,6.1,0,0,1-2.48-1.46c-.45-.42-.66-.08-1,.17a7.27,7.27,0,0,1-2.78,1.3C30.79,48.07,33.1,49.8,35.9,46.78Z"/><path id="_Pfad_15" data-name="&lt;Pfad&gt;" class="cls-4" d="M11.41,31.7a5.29,5.29,0,0,1,1.36-.54l.22,0a1,1,0,0,1,.41,0,.62.62,0,0,0,0-.13,7,7,0,0,0-2.23.18h0c0,.22,0,.45,0,.67l.24-.13Z"/><path id="_Pfad_16" data-name="&lt;Pfad&gt;" class="cls-5" d="M12.93,39.11a3.34,3.34,0,0,1-1.65-1.06,3.27,3.27,0,0,1-.07-3.91,2.48,2.48,0,0,1,.19-.26,2.57,2.57,0,0,1,1.92-1c0-.57.06-1.15.08-1.75a1,1,0,0,0-.41,0l-.22,0a5.29,5.29,0,0,0-1.36.54h0l-.24.13A4.84,4.84,0,0,0,11.32,40a5.89,5.89,0,0,0,1.52.68C12.87,40.21,12.9,39.67,12.93,39.11Z"/><path id="_Pfad_17" data-name="&lt;Pfad&gt;" class="cls-5" d="M13.76,32.87V31.62c0-.36-.16-.49-.36-.51,0,.6-.05,1.18-.08,1.75A2.17,2.17,0,0,1,13.76,32.87Z"/><path id="_Pfad_18" data-name="&lt;Pfad&gt;" class="cls-5" d="M12.84,40.72a5.69,5.69,0,0,0,.86.21l0-1.64a4.81,4.81,0,0,1-.81-.18C12.9,39.67,12.87,40.21,12.84,40.72Z"/><path id="_Pfad_19" data-name="&lt;Pfad&gt;" class="cls-4" d="M28.12,27.48a1.15,1.15,0,0,0,.21-.71c0-.82-.51-1.19-1.29-1.19-1.48,0-3,0-4.45,0-.78,0-1.31.4-1.28,1.21a1.05,1.05,0,0,0,.93,1.1,5.85,5.85,0,0,1,3.29-1A5.78,5.78,0,0,1,28.12,27.48Z"/><path id="_Pfad_20" data-name="&lt;Pfad&gt;" class="cls-4" d="M41.51,28a4.63,4.63,0,0,0-1.34-.2,4.84,4.84,0,0,0-1.08.13A15.09,15.09,0,0,0,41.51,28Z"/><path id="_Pfad_21" data-name="&lt;Pfad&gt;" class="cls-4" d="M43.5,27.72c.74-.28.7-.95.61-1.52s-.67-.68-1.2-.68H38.48a1,1,0,0,0-1.16.76,2.76,2.76,0,0,0,.28,1,5.72,5.72,0,0,1,2.57-.6A5.8,5.8,0,0,1,43.5,27.72Z"/><path id="_Pfad_22" data-name="&lt;Pfad&gt;" class="cls-6" d="M13.32,32.86a2.57,2.57,0,0,0-1.92,1,2.48,2.48,0,0,0-.19.26,3.27,3.27,0,0,0,.07,3.91,3.34,3.34,0,0,0,1.65,1.06l0-.52c.38.29.75.7.78.7,0-2.14,0-4.28,0-6.42l-.45.21A1.62,1.62,0,0,1,13.32,32.86Z"/><path id="_Pfad_23" data-name="&lt;Pfad&gt;" class="cls-6" d="M13.31,33.08l.45-.21a2.17,2.17,0,0,0-.44,0A1.62,1.62,0,0,0,13.31,33.08Z"/><path id="_Pfad_24" data-name="&lt;Pfad&gt;" class="cls-6" d="M12.93,39.11a4.81,4.81,0,0,0,.81.18s-.4-.41-.78-.7Z"/><path id="_Pfad_25" data-name="&lt;Pfad&gt;" class="cls-7" d="M29.68,46.79a9.35,9.35,0,0,1-1.39.22c3.85,4.94,7,1.83,8.34-.06a6.41,6.41,0,0,1-.73-.17C33.1,49.8,30.79,48.07,29.68,46.79Z"/><path id="_Pfad_26" data-name="&lt;Pfad&gt;" class="cls-8" d="M45.12,32c0,1.21-.08,2.5-.14,3.84,0,.17,0,.34,0,.51l.2-.31a6.18,6.18,0,0,0,.95-3.3,5.32,5.32,0,0,0,0-.69l.62,0,.06-1.07L45.87,31a5.69,5.69,0,0,0-.69-1.5c0,.47,0,1,0,1.46C45.15,31.31,45.14,31.66,45.12,32Z"/><path id="_Pfad_27" data-name="&lt;Pfad&gt;" class="cls-8" d="M13.41,31c0-.35,0-.7.05-1.07a9.23,9.23,0,0,0-2.31.15,4.92,4.92,0,0,0-1.62.65,3.31,3.31,0,0,0-1.74,3.08l.93,1a3.43,3.43,0,0,1,1.39-3.15,3.54,3.54,0,0,1,1.07-.46h0A7,7,0,0,1,13.41,31Z"/><path id="_Zusammengesetzter_Pfad_7" data-name="&lt;Zusammengesetzter Pfad&gt;" class="cls-8" d="M43.5,27.72a5.8,5.8,0,0,0-3.33-1,5.72,5.72,0,0,0-2.57.6,6.11,6.11,0,0,0-3.36,5h-2.8a6.08,6.08,0,0,0-3.32-4.81,5.78,5.78,0,0,0-2.59-.61,5.85,5.85,0,0,0-3.29,1,6.1,6.1,0,0,0-2.47,3.56,26.78,26.78,0,0,0-3.62-1.13,15.87,15.87,0,0,0-2.69-.41c0,.37,0,.72-.05,1.07a14.8,14.8,0,0,1,2.73.44,24.17,24.17,0,0,1,3.45,1.13c0,.14,0,.27,0,.41a6,6,0,0,0,6,6.1,5.93,5.93,0,0,0,5.07-2.9,7.28,7.28,0,0,1,.69-1.66,7.24,7.24,0,0,0,.19-1.25h2.76s0,.08,0,.12a1.79,1.79,0,0,1,.2.26A8.23,8.23,0,0,1,35.88,37a5.81,5.81,0,0,0,8,.56A6.36,6.36,0,0,0,45,36.38c0-.17,0-.34,0-.51.06-1.34.11-2.63.14-3.84,0-.37,0-.72,0-1.07,0-.5,0-1,0-1.46A6,6,0,0,0,43.5,27.72ZM25.53,38a5,5,0,1,1,4.88-5A5,5,0,0,1,25.53,38ZM45,32a6.3,6.3,0,0,1,0,.75,4.88,4.88,0,1,1-6-4.89h0a4.84,4.84,0,0,1,1.08-.13,4.63,4.63,0,0,1,1.34.2h0a4.93,4.93,0,0,1,3.19,3A5.16,5.16,0,0,1,45,32Z"/><path id="_Pfad_28" data-name="&lt;Pfad&gt;" class="cls-9" d="M31.18,40.11h0a2.75,2.75,0,0,0,2,.87,2.59,2.59,0,0,0,2.09-1A3.71,3.71,0,0,0,36,37.64c0-.22,0-.44-.07-.66a8.23,8.23,0,0,0-1.43-3.35,1.79,1.79,0,0,0-.2-.26l-.09-.12h-2a2.48,2.48,0,0,0-.25.3,8.22,8.22,0,0,0-.63,1,7.28,7.28,0,0,0-.69,1.66A8,8,0,0,0,30.3,38,2.93,2.93,0,0,0,31.18,40.11Z"/><g id="_Gruppe_4" data-name="&lt;Gruppe&gt;"><path id="_Pfad_29" data-name="&lt;Pfad&gt;" class="cls-10" d="M43.76,45.3A10.7,10.7,0,0,1,36.63,47a6.41,6.41,0,0,1-.73-.17,6.1,6.1,0,0,1-2.48-1.46c-.45-.42-.66-.08-1,.17a7.27,7.27,0,0,1-2.78,1.3,9.35,9.35,0,0,1-1.39.22,8.62,8.62,0,0,1-6.21-1.84.89.89,0,0,1-.27-.36c-.06.17,0,.34.27.55a8.62,8.62,0,0,0,6.21,1.84A9.35,9.35,0,0,0,29.68,47a7.27,7.27,0,0,0,2.78-1.3c.3-.25.51-.59,1-.17A6.1,6.1,0,0,0,35.9,47a6.41,6.41,0,0,0,.73.17,10.7,10.7,0,0,0,7.13-1.65c.4-.25.53-.44.47-.63A1.18,1.18,0,0,1,43.76,45.3Z"/></g><path id="_Pfad_30" data-name="&lt;Pfad&gt;" class="cls-11" d="M38.78,41c-1.09-.69-2.29-1.42-3.54-1.06a2.59,2.59,0,0,1-2.09,1,2.75,2.75,0,0,1-2-.87h0a2.93,2.93,0,0,1-.37-.1c-1.35-.44-2.62.4-3.79,1.16-.67.44-1.81,1.16-2.42,1.54l-.19.12-.23.14-2.06,1.31c-.47.3-.45.54,0,.89A8.62,8.62,0,0,0,28.29,47a9.35,9.35,0,0,0,1.39-.22,7.27,7.27,0,0,0,2.78-1.3c.3-.25.51-.59,1-.17a6.1,6.1,0,0,0,2.48,1.46,6.41,6.41,0,0,0,.73.17,10.7,10.7,0,0,0,7.13-1.65c.73-.46.58-.72-.06-1.12a21.3,21.3,0,0,1-3.24-2.09l-.68-.42-.08-.05Z"/></g></g></g></svg>
